<?xml version="1.0" encoding="UTF-8"?>
<svg width="16px" height="16px" viewBox="0 0 16 16" version="1.1" xmlns="http://www.w3.org/2000/svg" xmlns:xlink="http://www.w3.org/1999/xlink">
    <title>Icon_ZoomIn</title>
    <g id="Icon_ZoomIn" stroke="none" stroke-width="1" fill="none" fill-rule="evenodd">
        <path d="M7.08841568,0 C11.0032788,0 14.1768314,3.17363077 14.1768314,7.08841568 C14.1768314,8.61535183 13.694012,10.0293965 12.8727686,11.1865299 C12.902165,11.2094656 12.9301385,11.234169 12.9565338,11.260503 L12.9565338,11.260503 L15.7308602,14.0346729 C16.0897133,14.3935886 16.0897133,14.9754558 15.7308602,15.3343089 C15.3719446,15.6931306 14.7901555,15.6931306 14.4312399,15.3343089 L14.4312399,15.3343089 L11.6570856,12.5600451 C11.6476376,12.5505188 11.6384555,12.5408987 11.6294454,12.531044 C10.3995434,13.5583295 8.81626324,14.176847 7.08841568,14.176847 C3.17364641,14.176847 0,11.0032162 0,7.08843132 C0,3.17364641 3.17355256,0 7.08841568,0 Z M7.08841568,1.95524162 C4.2534436,1.95524162 1.95521034,4.25349052 1.95521034,7.08843132 C1.95521034,9.92346597 4.2534436,12.2216992 7.08841568,12.2216992 C9.92345033,12.2216992 12.2216054,9.92346597 12.2216054,7.08843132 C12.2216054,4.25347488 9.92345033,1.95524162 7.08841568,1.95524162 Z M7.95240985,3.31353669 L7.95240985,6.33581127 L10.9747001,6.33581127 L10.9747001,7.95838526 L7.95240985,7.95838526 L7.95240985,10.9806911 L6.32985151,10.9806911 L6.32985151,7.9584009 L3.30756128,7.9584009 L3.30756128,6.33582692 L6.32983586,6.33582692 L6.32983586,3.31353669 L7.95240985,3.31353669 Z" id="Combined-Shape" fill="#000000" fill-rule="nonzero"></path>
    </g>
</svg>