<?xml version="1.0" encoding="UTF-8"?>
<svg width="16px" height="16px" viewBox="0 0 16 16" version="1.1" xmlns="http://www.w3.org/2000/svg" xmlns:xlink="http://www.w3.org/1999/xlink">
    <title>Icon_LeftOutlined</title>
    <g id="Icon_LeftOutlined" stroke="none" stroke-width="1" fill="none" fill-rule="evenodd">
        <path d="M12.8747851,5.12040486 C13.067173,5.29363172 13.0827061,5.59002105 12.9094792,5.78240897 L8.44143808,10.7473963 C8.41629464,10.795476 8.38231488,10.8399738 8.33962881,10.8784085 C8.25358866,10.9558794 8.14674742,10.9955969 8.03942443,10.9986258 C8.031524,10.998064 8.0234933,10.9984689 8.01545645,10.9986683 C8.0070566,10.9985021 7.99869237,10.9980893 7.99034407,10.9974541 C7.88313666,10.9955969 7.77629543,10.9558794 7.69025528,10.8784085 C7.64756921,10.8399738 7.61358944,10.795476 7.588446,10.7473963 L3.12040486,5.78240897 C2.947178,5.59002105 2.96271111,5.29363172 3.15509903,5.12040486 C3.34748694,4.947178 3.64387628,4.96271111 3.81710313,5.15509903 L3.81710313,5.15509903 L8.015,9.817 L12.2127809,5.15509903 C12.3860078,4.96271111 12.6823971,4.947178 12.8747851,5.12040486 Z" id="图标颜色" fill="#000000" transform="translate(8.014942, 7.999407) rotate(90.000000) translate(-8.014942, -7.999407) "></path>
    </g>
</svg>