<?xml version="1.0" encoding="UTF-8"?>
<svg width="16px" height="16px" viewBox="0 0 16 16" version="1.1" xmlns="http://www.w3.org/2000/svg" xmlns:xlink="http://www.w3.org/1999/xlink">
    <title>Icon_RotateRight</title>
    <g id="Icon_RotateRight" stroke="none" stroke-width="1" fill="none" fill-rule="evenodd">
        <path d="M3.85561628,3.86593304 L9.67813821,3.86593304 C11.0191077,3.86593304 11.5051951,4.00540589 11.9950418,4.26781036 C12.4793946,4.52420682 12.8754807,4.92029297 13.1318772,5.40464574 C13.3946576,5.89449247 13.5337545,6.38057981 13.5337545,7.72154932 L13.5337545,12.0403208 C13.5337545,13.3812903 13.3942816,13.8673776 13.1318772,14.3572243 C12.8754807,14.8415771 12.4793946,15.2376633 11.9950418,15.4940597 C11.5051951,15.7568401 11.0191077,15.895937 9.67813821,15.895937 L3.85561628,15.895937 C2.51464677,15.895937 2.02855942,15.7564642 1.5387127,15.4940597 C1.05435994,15.2376633 0.65827378,14.8415771 0.401877319,14.3572243 C0.139096923,13.8673776 1.07469589e-13,13.3812903 1.07469589e-13,12.0403208 L1.07469589e-13,7.72154932 C1.07469589e-13,6.38057981 0.139472853,5.89449245 0.401877319,5.40464574 C0.658273778,4.92029297 1.05435994,4.52420681 1.5387127,4.26781036 C2.02855942,4.00502996 2.51464677,3.86593304 3.85561628,3.86593304 Z M3.43155864,5.36968354 C2.76126186,5.36968354 2.51803022,5.43960793 2.27291888,5.57043423 C2.0307425,5.69863246 1.83269942,5.89667554 1.7045012,6.13885192 C1.57367489,6.38396325 1.5037505,6.6271949 1.5037505,7.29749168 L1.5037505,12.4643784 C1.5037505,13.1346752 1.57367489,13.3779068 1.7045012,13.6230181 C1.83570343,13.8681295 2.02780756,14.0602336 2.27291888,14.1914358 C2.51803022,14.3222621 2.76126186,14.3921865 3.43155864,14.3921865 L10.1021959,14.3921865 C10.7724926,14.3921865 11.0157243,14.3222622 11.2608356,14.1914358 C11.503012,14.0632376 11.7010551,13.8651945 11.8292533,13.6230181 C11.9600796,13.3779068 12.030004,13.1346752 12.030004,12.4643784 L12.030004,7.29749168 C12.030004,6.6271949 11.9600796,6.38396325 11.8292533,6.13885192 C11.7010551,5.89667553 11.503012,5.69863246 11.2608356,5.57043423 C11.0157243,5.43960794 10.7724926,5.36968354 10.1021959,5.36968354 L3.43155864,5.36968354 L3.43155864,5.36968354 Z M9.77513013,2.73812016 C9.43470054,2.73844588 9.13652827,2.50999592 9.04825306,2.18121043 C8.95997785,1.85242493 9.1036283,1.50535054 9.39844062,1.33512095 L11.3518125,0.207308076 C11.5845709,0.0708544051 11.8725986,0.0695769873 12.1065581,0.20396074 C12.3405176,0.338344492 12.484536,0.587784419 12.4839429,0.857591194 C12.4833497,1.12739797 12.3382359,1.37620225 12.1036878,1.50955601 L11.9570721,1.59414197 C13.7227454,2.19817949 15.1618398,3.50252874 15.9359959,5.2005116 C16.0444509,5.44629813 16.0135419,5.73127429 15.854912,5.94809232 C15.6962821,6.16491035 15.434031,6.28063044 15.1669462,6.25166195 C14.8998613,6.22269346 14.6685192,6.05343739 14.5600642,5.80765086 C13.7281142,3.99600745 11.8984258,2.73849611 9.77513013,2.73812016 Z" id="Shape" fill="#000000" fill-rule="nonzero" transform="translate(8.000000, 8.000000) scale(-1, 1) translate(-8.000000, -8.000000) "></path>
    </g>
</svg>