<?xml version="1.0" encoding="UTF-8"?>
<svg width="16px" height="16px" viewBox="0 0 16 16" version="1.1" xmlns="http://www.w3.org/2000/svg" xmlns:xlink="http://www.w3.org/1999/xlink">
    <title>Icon_Delate</title>
    <g id="Icon_Delate" stroke="none" stroke-width="1" fill="none" fill-rule="evenodd">
        <path d="M14.4,4 L1.60000001,4 C1.15817221,4 0.800000008,3.6418278 0.800000008,3.2 C0.800000008,2.7581722 1.15817221,2.4 1.60000001,2.4 L14.4,2.4 C14.8418278,2.4 15.2,2.75817221 15.2,3.2 C15.2,3.64182779 14.8418278,4 14.4,4 Z M9.60000001,1.6 L6.40000001,1.6 C5.95817221,1.6 5.60000001,1.2418278 5.60000001,0.8 C5.60000001,0.3581722 5.95817221,0 6.40000001,0 L9.60000001,0 C10.0418278,0 10.4,0.3581722 10.4,0.8 C10.4,1.2418278 10.0418278,1.6 9.60000001,1.6 Z M5.60000001,12 L5.60000001,6.4 C5.60000001,5.9581722 5.95817221,5.6 6.40000001,5.6 C6.84182781,5.6 7.20000001,5.9581722 7.20000001,6.4 L7.20000001,12 C7.20000001,12.4418278 6.8418278,12.8 6.40000001,12.8 C5.95817222,12.8 5.60000001,12.4418278 5.60000001,12 L5.60000001,12 Z M8.80000001,12 L8.80000001,6.4 C8.80000001,5.9581722 9.15817221,5.6 9.60000001,5.6 C10.0418278,5.6 10.4,5.9581722 10.4,6.4 L10.4,12 C10.4,12.4418278 10.0418278,12.8 9.60000001,12.8 C9.15817221,12.8 8.80000001,12.4418278 8.80000001,12 Z M3.20000001,4.8 C3.64182781,4.8 4.00000001,5.1581722 4.00000001,5.6 L4.00000001,13.6 C4.00000001,14.0418278 4.35817221,14.4 4.80000001,14.4 L11.2,14.4 C11.6418278,14.4 12,14.0418278 12,13.6 L12,5.6 C12,5.15817221 12.3581722,4.8 12.8,4.8 C13.2418278,4.8 13.6,5.15817221 13.6,5.6 L13.6,13.6 C13.6,14.2365196 13.3471436,14.846969 12.8970563,15.2970563 C12.446969,15.7471436 11.8365196,16 11.2,16 L4.80000001,16 C3.47451661,16 2.40000001,14.9254834 2.40000001,13.6 L2.40000001,5.6 C2.40000001,5.1581722 2.75817221,4.8 3.20000001,4.8 Z" id="Shape" fill="#000000" fill-rule="nonzero"></path>
    </g>
</svg>