<?xml version="1.0" encoding="UTF-8"?>
<svg width="16px" height="16px" viewBox="0 0 16 16" version="1.1" xmlns="http://www.w3.org/2000/svg" xmlns:xlink="http://www.w3.org/1999/xlink">
    <title>Icon_Download</title>
    <g id="Icon_Download" stroke="none" stroke-width="1" fill="none" fill-rule="evenodd">
        <path d="M10.8235241,5.64706625 L10.8235241,0.666666667 C10.8235241,0.298476833 10.5250473,2.65431532e-16 10.1568574,0 L5.84310651,0 C5.47491667,6.76353751e-17 5.17643984,0.298476833 5.17643984,0.666666667 L5.17643984,5.64706625 L5.17643984,5.64706625 L3.02122564,5.64706625 C2.6530358,5.64706625 2.35455897,5.94554308 2.35455897,6.31373291 C2.35455897,6.49054359 2.42479661,6.66011259 2.54982047,6.78513679 L7.5285781,11.763908 C7.78892727,12.0242579 8.21103726,12.0242585 8.47138714,11.7639093 L13.450172,6.78513808 C13.7105219,6.52478891 13.7105225,6.10267892 13.4501733,5.84232904 C13.325149,5.71730439 13.1555794,5.64706625 12.9787681,5.64706625 L10.8235241,5.64706625 L10.8235241,5.64706625 Z M1.41175304,15.0588283 C1.41175304,15.5786231 1.83312996,16 2.35292474,16 L13.6470753,16 C14.16687,16 14.588247,15.5786231 14.588247,15.0588283 C14.588247,14.5390335 14.16687,14.1176566 13.6470753,14.1176566 L2.35292474,14.1176566 C1.83312996,14.1176566 1.41175304,14.5390335 1.41175304,15.0588283 Z" id="Shape" fill="#000000" fill-rule="nonzero"></path>
    </g>
</svg>